<svg width="28" height="29" viewBox="0 0 28 29" fill="none" xmlns="http://www.w3.org/2000/svg">
<path d="M22.0414 20.5251L27.7521 26.3296L25.8654 28.2477L20.1561 22.4418C18.0317 24.1732 15.3894 25.1149 12.6667 25.1109C6.04275 25.1109 0.666748 19.6453 0.666748 12.9109C0.666748 6.17654 6.04275 0.710938 12.6667 0.710938C19.2907 0.710938 24.6667 6.17654 24.6667 12.9109C24.6706 15.679 23.7444 18.3653 22.0414 20.5251ZM19.3667 19.5193C21.0589 17.7501 22.0039 15.3786 22.0001 12.9109C22.0001 7.66765 17.8227 3.42205 12.6667 3.42205C7.50941 3.42205 3.33341 7.66765 3.33341 12.9109C3.33341 18.1529 7.50941 22.3998 12.6667 22.3998C15.094 22.4037 17.4266 21.443 19.1667 19.7226L19.3667 19.5193Z" fill="#34485E"/>
</svg>
