<svg width="32" height="37" viewBox="0 0 32 37" fill="none" xmlns="http://www.w3.org/2000/svg">
<path d="M2 15.8284C2 15.298 2.21071 14.7893 2.58579 14.4142L14.5858 2.41421C15.3668 1.63316 16.6332 1.63316 17.4142 2.41421L29.4142 14.4142C29.7893 14.7893 30 15.298 30 15.8284L30 33C30 34.1046 29.1046 35 28 35H4.00001C2.89544 35 2.00001 34.1046 2.00001 33L2 15.8284Z" stroke="#6ED1BF" stroke-width="3" stroke-linecap="round" stroke-linejoin="round"/>
<path d="M9.18347 23.1532L14.5603 28.7292C15.3468 29.5448 16.6532 29.5448 17.4397 28.7292L22.8165 23.1532C23.5743 22.3674 24 21.3016 24 20.1903C24 17.876 22.191 16 19.9594 16C18.8878 16 17.86 16.4415 17.1022 17.2273V17.2273C16.5001 17.8518 15.4999 17.8518 14.8978 17.2273V17.2273C14.14 16.4415 13.1122 16 12.0406 16C9.80904 16 8 17.876 8 20.1903C8 21.3016 8.4257 22.3674 9.18347 23.1532Z" stroke="#6ED1BF" stroke-width="3" stroke-linecap="round" stroke-linejoin="round"/>
</svg>
